<?xml version="1.0"?>
<svg xmlns="http://www.w3.org/2000/svg" xmlns:xlink="http://www.w3.org/1999/xlink" version="1.1" id="Layer_1" x="0px" y="0px" viewBox="0 0 512 512" style="enable-background:new 0 0 512 512;" xml:space="preserve" data-minimalscrollbar="yes" width="512px" height="512px" class=""><g><path style="fill:#FFB229" d="M256,74.323l137.634,363.355h33.032c18.168,0,33.583-14.853,34.254-33.01l9.789-264.28L256,74.323z" data-original="#99B965" class="" data-old_color="#99B965"/><path style="fill:#FFE529" d="M327.57,426.667H184.43v11.011H85.333c-18.168,0-33.583-14.853-34.254-33.01l-9.789-264.28  L256,74.323l181.677,66.065l-9.789,264.28c-0.672,18.157-16.087,33.01-34.254,33.01H327.57V426.667z" data-original="#A5D96B" class="active-path" data-old_color="#A5D96B"/><polygon style="fill:#C68A20" points="415.656,74.323 448.688,140.387 481.72,140.387 481.72,107.355 " data-original="#807A58" class="" data-old_color="#807A58"/><g>
	<polygon style="fill:#C68A20" points="30.28,107.355 30.28,140.387 448.688,140.387 448.688,74.323  " data-original="#8C9A5F" class="" data-old_color="#8C9A5F"/>
	<path style="fill:#C68A20" d="M448.688,8.258h-33.032l33.032,99.097h33.032V41.29C481.72,23.123,466.856,8.258,448.688,8.258z" data-original="#8C9A5F" class="" data-old_color="#8C9A5F"/>
</g><path style="fill:#FFB229" d="M448.688,41.29v66.065H30.28V41.29c0-18.168,14.865-33.032,33.032-33.032h352.344  C433.824,8.258,448.688,23.123,448.688,41.29z" data-original="#99B965" class="" data-old_color="#99B965"/><path style="fill:#9BC5FF;" d="M393.634,437.677c18.245,0,33.032,14.787,33.032,33.032s-14.787,33.032-33.032,33.032l-22.022-33.032  L393.634,437.677z" data-original="#9BC5FF" class=""/><path style="fill:#CDE2FF;" d="M393.634,437.677v66.065c-18.245,0-33.032-14.787-33.032-33.032S375.39,437.677,393.634,437.677z" data-original="#CDE2FF"/><path style="fill:#9BC5FF;" d="M118.366,437.677c18.245,0,33.032,14.787,33.032,33.032s-14.787,33.032-33.032,33.032L96.344,470.71  L118.366,437.677z" data-original="#9BC5FF" class=""/><path style="fill:#CDE2FF;" d="M118.366,437.677v66.065c-18.245,0-33.032-14.787-33.032-33.032S100.121,437.677,118.366,437.677z" data-original="#CDE2FF"/><path d="M206.452,82.581h99.097c4.561,0,8.258-3.696,8.258-8.258c0-4.562-3.697-8.258-8.258-8.258h-99.097  c-4.561,0-8.258,3.696-8.258,8.258C198.194,78.884,201.891,82.581,206.452,82.581z" data-original="#000000" class="" style="fill:#000000"/><path d="M503.742,198.194h-26.91l1.835-49.548h3.053c4.561,0,8.258-3.696,8.258-8.258V41.29c0-22.768-18.522-41.29-41.29-41.29  H63.312c-22.768,0-41.29,18.522-41.29,41.29v99.097c0,4.562,3.697,8.258,8.258,8.258h3.053l1.835,49.548H8.258  c-4.561,0-8.258,3.696-8.258,8.258c0,4.562,3.697,8.258,8.258,8.258h27.521l7.047,190.264c0.837,22.587,19.905,40.962,42.507,40.962  c-5.174,6.905-8.258,15.486-8.258,24.774c0,22.768,18.522,41.29,41.29,41.29s41.29-18.522,41.29-41.29  c0-9.289-3.084-17.869-8.28-24.774h33.054c4.561,0,8.258-3.696,8.258-8.258v-2.753h126.624v2.753c0,4.562,3.697,8.258,8.258,8.258  h33.054c-5.196,6.905-8.28,15.486-8.28,24.774c0,22.768,18.522,41.29,41.29,41.29c22.768,0,41.29-18.522,41.29-41.29  c0-9.289-3.084-17.869-8.28-24.774c22.624,0,41.693-18.375,42.529-40.962l7.047-190.264h27.521c4.561,0,8.258-3.696,8.258-8.258  C512,201.89,508.303,198.194,503.742,198.194z M63.312,16.516h385.376c13.661,0,24.774,11.114,24.774,24.774v57.806H96.344  c-4.561,0-8.258,3.696-8.258,8.258s3.697,8.258,8.258,8.258h377.118v16.516H38.538v-16.516h24.774c4.561,0,8.258-3.696,8.258-8.258  s-3.697-8.258-8.258-8.258H38.538V41.29C38.538,27.63,49.651,16.516,63.312,16.516z M118.366,495.484  c-13.661,0-24.774-11.114-24.774-24.774c0-10.765,6.905-19.945,16.516-23.354v23.354c0,4.562,3.697,8.258,8.258,8.258  s8.258-3.696,8.258-8.258v-23.354c9.611,3.409,16.516,12.589,16.516,23.354C143.14,484.37,132.027,495.484,118.366,495.484z   M393.634,495.484c-13.661,0-24.774-11.114-24.774-24.774c0-10.765,6.905-19.945,16.516-23.354v23.354  c0,4.562,3.697,8.258,8.258,8.258c4.561,0,8.258-3.696,8.258-8.258v-23.354c9.611,3.409,16.516,12.589,16.516,23.354  C418.409,484.37,407.295,495.484,393.634,495.484z M452.669,404.362c-0.512,13.816-12.176,25.057-26.002,25.057h-90.839v-46.796  c0-4.562-3.697-8.258-8.258-8.258c-4.561,0-8.258,3.696-8.258,8.258v35.785H192.688v-35.785c0-4.562-3.697-8.258-8.258-8.258  s-8.258,3.696-8.258,8.258v46.796H85.333c-13.826,0-25.49-11.241-26.002-25.057L49.86,148.645h54.742v13.763  c0,4.562,3.697,8.258,8.258,8.258c4.561,0,8.258-3.696,8.258-8.258v-13.763h55.054v13.763c0,4.562,3.697,8.258,8.258,8.258  s8.258-3.696,8.258-8.258v-13.763h55.054v13.763c0,4.562,3.697,8.258,8.258,8.258c4.561,0,8.258-3.696,8.258-8.258v-13.763h55.054  v13.763c0,4.562,3.697,8.258,8.258,8.258c4.561,0,8.258-3.696,8.258-8.258v-13.763h55.054v13.763c0,4.562,3.697,8.258,8.258,8.258  c4.561,0,8.258-3.696,8.258-8.258v-13.763h54.742L452.669,404.362z" data-original="#000000" class="" style="fill:#000000"/></g> </svg>
